# AST/ASF file generated using VICON BodyLanguage
# -----------------------------------------------
:version 1.10
:name VICON
:units
  mass 1.0
  length 0.45
  angle deg
:documentation
   .ast/.asf automatically generated from VICON data using
   VICON BodyBuilder and BodyLanguage model FoxedUp or BRILLIANT.MOD
:root
   order TX TY TZ RX RY RZ
   axis XYZ
   position 0 0 0  
   orientation 0 0 0 
:bonedata
  begin
     id 1 
     name lhipjoint
     direction 0.612567 -0.751349 0.245431 
     length 2.42285 
     axis 0 0 0  XYZ
  end
  begin
     id 2 
     name lfemur
     direction 0.34202 -0.939693 0  
     length 7.11304  
     axis 0 0 20  XYZ
    dof rx ry rz
    limits (-160.0 20.0)
           (-70.0 70.0)
           (-60.0 70.0)
  end
  begin
     id 3 
     name ltibia
     direction 0.34202 -0.939693 0   
     length 7.84529   
     axis 0 0 20   XYZ
    dof rx
    limits (-10.0 170.0)
  end
  begin
     id 4 
     name lfoot
     direction 0.0779239 -0.214094 0.9737   
     length 1.97176   
     axis -90 7.62852e-016 20   XYZ
    dof rx rz
    limits (-45.0 90.0)
           (-70.0 20.0)
  end
  begin
     id 5 
     name ltoes
     direction 1.53565e-011 -4.21709e-011 1   
     length 0.993197   
     axis -90 7.62852e-016 20   XYZ
    dof rx
    limits (-90.0 20.0)
  end
  begin
     id 6 
     name rhipjoint
     direction -0.665722 -0.709315 0.231701   
     length 2.56642  
     axis 0 0 0  XYZ 
  end
  begin
     id 7 
     name rfemur
     direction -0.34202 -0.939693 0   
     length 7.32108   
     axis 0 0 -20   XYZ
    dof rx ry rz
    limits (-160.0 20.0)
           (-70.0 70.0)
           (-70.0 60.0)
  end
  begin
     id 8 
     name rtibia
     direction -0.34202 -0.939693 0   
     length 7.81254   
     axis 0 0 -20   XYZ
    dof rx
    limits (-10.0 170.0)
 end
 begin
     id 9 
     name rfoot
     direction -0.0832806 -0.228812 0.969902   
     length 2.08278  
     axis -90 -7.62852e-016 -20   XYZ
    dof rx rz
    limits (-45.0 90.0)
           (-20.0 70.0)
  end
  begin
     id 10 
     name rtoes
     direction -1.53589e-011 -4.22086e-011 1   
     length 1.04609   
     axis -90 -7.62852e-016 -20   XYZ
    dof rx
    limits (-90.0 20.0)
  end
  begin
     id 11 
     name lowerback
     direction -0.00506013 0.988403 -0.151766   
     length 2.01978   
     axis 0 0 0   XYZ
    dof rx ry rz
    limits (-20.0 45.0)
           (-30.0 30.0)
           (-30.0 30.0)
  end
  begin
     id 12 
     name upperback
     direction -0.00836389 0.99968 0.0238859   
     length 2.01276   
     axis 0 0 0   XYZ
    dof rx ry rz
    limits (-20.0 45.0)
           (-30.0 30.0)
           (-30.0 30.0)
  end
  begin
     id 13 
     name thorax
     direction -0.00684136 0.995386 0.0957043   
     length 2.07303   
     axis 0 0 0   XYZ
    dof rx ry rz
    limits (-20.0 45.0)
           (-30.0 30.0)
           (-30.0 30.0)
  end
  begin
     id 14 
     name lowerneck
     direction -0.0161045 0.999661 0.0204485   
     length 1.91243   
     axis 0 0 0   XYZ
    dof rx ry rz
    limits (-20.0 45.0)
           (-30.0 30.0)
           (-30.0 30.0)
  end
  begin
     id 15 
     name upperneck
     direction 0.0553583 0.990946 -0.122319   
     length 1.91574   
     axis 0 0 0   XYZ
    dof rx ry rz
    limits (-20.0 45.0)
           (-30.0 30.0)
           (-30.0 30.0)
  end
  begin
     id 16
     name head
     direction 0.0180273 0.998839 -0.0446756  
     length 1.92693  
     axis 0 0 0   XYZ
    dof rx ry rz
    limits (-20.0 45.0)
           (-30.0 30.0)
           (-30.0 30.0)
  end
  begin
     id 17 
     name lclavicle
     direction 0.945646 0.319323 -0.0615358  
     length 4.0076  
     axis 0 0 0   XYZ
    dof ry rz
    limits (-20.0 10.0)
           (0.0 20.0)
  end
  begin
     id 18 
     name lhumerus
     direction 1 -4.48967e-011 -2.79996e-027   
     length 5.64147   
     axis 180 -30 -90   XYZ
    dof rx ry rz
    limits (-60.0 90.0)
           (-90.0 90.0)
           (-90.0 90.0)
  end
  begin
     id 19
     name lradius
     direction 1 -4.48976e-011 -9.5122e-027   
     length 2.86444   
     axis 180 -30 -90   XYZ
    dof rx
    limits (-10.0 170.0)
  end
  begin
     id 20
     name lwrist
     direction 1 -4.48983e-011 -1.24047e-026   
     length 1.43222   
     axis 9.05591e-015 90 90   XYZ
    dof ry
    limits (-180.0 0.0)
 end
  begin
     id 21 
     name lhand
     direction 1 -4.4892e-011 -2.48094e-026   
     length 0.722123   
     axis 1.58305e-014 90 90   XYZ
    dof rx rz
    limits (-90.0 90.0)
           (-45.0 45.0)
  end
  begin
     id 22 
     name lfingers
     direction 1 -4.48895e-011 -4.96187e-026   
     length 0.582194   
     axis 3.1661e-014 90 90   XYZ
    dof rx
    limits (0.0 90.0)
  end
  begin
     id 23
     name lthumb
     direction 0.707107 -6.34961e-011 0.707107   
     length 0.835918   
     axis -90 45 2.85299e-015   XYZ
    dof rx rz
    limits (-45.0 45.0)
           (-45.0 45.0)
  end
  begin
     id 24 
     name rclavicle
     direction -0.932635 0.324218 -0.15835   
     length 3.65819  
     axis 0 0 0   XYZ 
    dof ry rz
    limits (-10.0 20.0)
           (-20.0 0.0)
  end
  begin
     id 25 
     name rhumerus
     direction -1 -4.48965e-011 -4.02296e-027  
     length 5.44729   
     axis 180 30 90   XYZ
    dof rx ry rz
    limits (-90.0 60.0)
           (-90.0 90.0)
           (-90.0 90.0)
  end
  begin
     id 26 
     name rradius
     direction -1 -4.48957e-011 -8.81087e-027   
     length 3.08821   
     axis 180 30 90   XYZ
    dof rx
    limits (-10.0 170.0)
  end
  begin
     id 27 
     name rwrist
     direction -1 -4.49015e-011 -1.24047e-026   
     length 1.5441   
     axis 9.05591e-015 -90 -90   XYZ
    dof ry
    limits (-180.0 0.0)
  end
  begin
     id 28
     name rhand
     direction -1 -4.4891e-011 -2.48094e-026   
     length 0.821049   
     axis 1.58305e-014 -90 -90   XYZ
    dof rx rz
    limits (-90.0 90.0)
           (-45.0 45.0)
  end
  begin
     id 29
     name rfingers
     direction -1 -4.48985e-011 -4.96187e-026   
     length 0.661951   
     axis 3.1661e-014 -90 -90   XYZ
    dof rx
    limits (0.0 90.0)
  end
  begin
     id 30
     name rthumb
     direction -0.707107 -6.34906e-011 0.707107   
     length 0.950433   
     axis -90 -45 -2.85299e-015   XYZ
    dof rx rz
    limits (-45.0 45.0)
           (-45.0 45.0)
  end
:hierarchy
  begin
    root lhipjoint rhipjoint lowerback
    lhipjoint lfemur
    lfemur ltibia
    ltibia lfoot
    lfoot ltoes
    rhipjoint rfemur
    rfemur rtibia
    rtibia rfoot
    rfoot rtoes
    lowerback upperback
    upperback thorax
    thorax lowerneck lclavicle rclavicle
    lowerneck upperneck
    upperneck head
    lclavicle lhumerus
    lhumerus lradius
    lradius lwrist
    lwrist lhand lthumb
    lhand lfingers
    rclavicle rhumerus
    rhumerus rradius
    rradius rwrist
    rwrist rhand rthumb
    rhand rfingers
  end

#!OML:ASF F:\VICON\USERDATA\INSTALL\rory3\rory3.ASF
:FULLY-SPECIFIED
:DEGREES
2847
root 3.14886 17.4787 -0.112729 -565.067 96.248 -557.775
lowerback 4.73607 -1.27589 -2.19803
upperback -1.17357 -1.86233 -0.7789
thorax -3.82288 -0.881746 0.576503
lowerneck -4.32251 -4.00711 -2.99429
upperneck 8.21044 -6.29387 15.3735
head 3.74472 -2.4413 4.91125
rclavicle -2.0276e-014 -9.54166e-015
rhumerus -37.0871 -9.02758 -82.9464
rradius 64.2588
rwrist 14.1466
rhand -6.41387 6.55884
rfingers 7.12502
rthumb 19.4345 -22.4899
lclavicle -2.0276e-014 -9.54166e-015
lhumerus -35.2614 -7.47054 90.4973
lradius 66.8524
lwrist 35.7433
lhand -22.4253 10.1659
lfingers 7.12502
lthumb 3.99813 40.1082
rfemur 5.03703 3.76003 19.5482
rtibia 18.7837
rfoot -18.0776 -0.230815
rtoes -4.17733
lfemur 6.26719 2.52764 -15.8776
ltibia 18.1701
lfoot -17.9894 2.42743
ltoes -4.55848
2848
root 3.14758 17.4842 -0.115134 -563.866 96.2586 -556.74
lowerback 4.66046 -1.22406 -2.18673
upperback -1.27783 -1.78887 -0.668426
thorax -3.88682 -0.843116 0.677891
lowerneck -4.28309 -3.85055 -2.84641
upperneck 7.91514 -6.05873 15.5241
head 3.62821 -2.32839 4.94662
rclavicle 2.84262e-014 6.36111e-015
rhumerus -37.1848 -9.5243 -82.1965
rradius 65.6286
rwrist 14.913
rhand -7.23929 6.3533
rfingers 7.12502
rthumb 18.6407 -22.7736
lclavicle 2.84262e-014 6.36111e-015
lhumerus -35.1512 -6.51757 89.5401
lradius 68.3923
lwrist 34.9274
lhand -23.4528 8.8541
lfingers 7.12502
lthumb 3.0058 38.8127
rfemur 4.79712 3.87986 19.4518
rtibia 18.8483
rfoot -18.1166 -0.440429
rtoes -4.80864
lfemur 6.19135 2.55075 -16.0092
ltibia 17.9526
lfoot -17.8789 2.447
ltoes -4.11214
2849
root 3.14775 17.4927 -0.118976 -562.333 96.1829 -555.419
lowerback 4.56907 -1.20107 -2.23633
upperback -1.43458 -1.75711 -0.541675
thorax -3.99311 -0.822445 0.833755
lowerneck -4.28328 -3.67548 -2.81711
upperneck 7.66749 -5.80134 15.7358
head 3.5356 -2.202 5.02159
rclavicle 7.7526e-015 -9.93923e-015
rhumerus -37.348 -9.92643 -81.2912
rradius 67.173
rwrist 15.6146
rhand -8.48371 6.19006
rfingers 7.12502
rthumb 17.4434 -23.0473
lclavicle 7.7526e-015 -9.93923e-015
lhumerus -35.073 -5.61931 88.5489
lradius 69.9128
lwrist 33.3809
lhand -23.8254 7.67724
lfingers 7.12502
lthumb 2.64599 37.6406
rfemur 4.55427 3.86629 19.2433
rtibia 18.8422
rfoot -18.1142 -0.443801
rtoes -4.70916
lfemur 6.06777 2.46882 -16.2435
ltibia 17.7017
lfoot -17.7607 2.54707
ltoes -3.84591
2850
root 3.14953 17.5045 -0.125336 -561.387 96.1417 -554.748
lowerback 4.42044 -1.15706 -2.13083
upperback -1.60758 -1.68714 -0.445709
thorax -4.09057 -0.786847 0.867011
lowerneck -4.336 -3.52797 -2.67815
upperneck 7.43314 -5.5898 15.9685
head 3.45828 -2.08987 5.08117
rclavicle 6.55989e-015 -3.97569e-016
rhumerus -37.3983 -10.4657 -80.3688
rradius 68.7201
rwrist 16.0425
rhand -10.7482 6.10766
rfingers 7.12502
rthumb 15.263 -23.3092
lclavicle 6.55989e-015 -3.97569e-016
lhumerus -34.9016 -5.04089 87.3974
lradius 71.412
lwrist 31.7588
lhand -24.6486 7.44404
lfingers 7.12502
lthumb 1.85095 37.4158
rfemur 4.31698 3.85064 19.096
rtibia 18.7449
rfoot -18.073 -0.369894
rtoes -3.96552
lfemur 5.88023 2.56355 -16.3487
ltibia 17.4519
lfoot -17.5748 2.47339
ltoes -3.66254
2851
root 3.15119 17.5144 -0.131047 -561.179 96.112 -554.825
lowerback 4.26857 -1.10269 -1.94256
upperback -1.78349 -1.59782 -0.342353
thorax -4.19169 -0.743748 0.860146
lowerneck -4.41127 -3.40464 -2.38424
upperneck 7.14438 -5.40487 16.0793
head 3.36408 -1.99397 5.07385
rclavicle -1.43622e-014 -9.93923e-015
rhumerus -37.3355 -11.2383 -79.348
rradius 70.2821
rwrist 16.6304
rhand -12.7919 6.13377
rfingers 7.12502
rthumb 13.2938 -23.4222
lclavicle -1.43622e-014 -9.93923e-015
lhumerus -34.5835 -4.34417 86.068
lradius 72.8661
lwrist 30.0827
lhand -26.0921 7.17325
lfingers 7.12502
lthumb 0.45683 37.1525
rfemur 4.11936 3.79819 19.0398
rtibia 18.5626
rfoot -17.9758 -0.352712
rtoes -3.77871
lfemur 5.68118 2.62714 -16.3624
ltibia 17.2242
lfoot -17.425 2.37529
ltoes -3.5098
2852
root 3.14924 17.5229 -0.136762 -562.166 96.0581 -556.108
lowerback 4.1671 -1.08975 -1.6487
upperback -1.99252 -1.55626 -0.174598
thorax -4.3552 -0.725783 0.865945
lowerneck -4.48931 -3.27118 -2.20205
upperneck 6.87307 -5.20371 16.2198
head 3.27774 -1.89214 5.09546
rclavicle 3.16565e-014 2.38542e-015
rhumerus -37.148 -12.0384 -78.208
rradius 71.7944
rwrist 17.3212
rhand -14.3206 6.1771
rfingers 7.12502
rthumb 11.82 -23.4693
lclavicle 3.16565e-014 2.38542e-015
lhumerus -34.233 -3.45073 84.6509
lradius 74.3069
lwrist 28.6803
lhand -27.0444 6.5523
lfingers 7.12502
lthumb -0.463002 36.5315
rfemur 3.92371 3.75973 19.1273
rtibia 18.3414
rfoot -17.8767 -0.477512
rtoes -3.7348
lfemur 5.45239 2.45545 -16.2931
ltibia 17.0209
lfoot -17.3521 2.35656
ltoes -2.51277
2853
root 3.14899 17.5323 -0.144169 -562.523 95.9849 -556.763
lowerback 4.03116 -1.08246 -1.39579
upperback -2.20259 -1.52371 -0.02642
thorax -4.49957 -0.71182 0.874444
lowerneck -4.5925 -3.12275 -2.06303
upperneck 6.68075 -4.99244 16.4054
head 3.2205 -1.77923 5.13911
rclavicle -2.66868e-014 -3.97569e-016
rhumerus -36.8985 -12.7749 -77.0155
rradius 73.3148
rwrist 17.6749
rhand -16.0751 6.25578
rfingers 7.12502
rthumb 10.1277 -23.4805
lclavicle -2.66868e-014 -3.97569e-016
lhumerus -33.8335 -2.69403 83.2264
lradius 75.7686
lwrist 28.0595
lhand -28.4503 5.74562
lfingers 7.12502
lthumb -1.82081 35.7176
rfemur 3.72845 3.75413 19.1306
rtibia 18.109
rfoot -17.7763 -0.59
rtoes -3.6147
lfemur 5.20284 2.31839 -16.306
ltibia 16.8419
lfoot -17.2609 2.34927
ltoes -1.80014
2854
root 3.14965 17.5432 -0.151626 -562.191 95.8995 -556.757
lowerback 3.89766 -1.07959 -1.2094
upperback -2.46305 -1.50059 0.111068
thorax -4.69637 -0.699924 0.910731
lowerneck -4.66985 -2.98304 -1.99436
upperneck 6.57002 -4.80026 16.6172
head 3.18687 -1.67336 5.20266
rclavicle -2.74323e-014 4.57205e-015
rhumerus -36.6264 -13.4509 -75.784
rradius 74.8018
rwrist 17.7398
rhand -17.9339 6.28561
rfingers 7.12502
rthumb 8.33409 -23.53
lclavicle -2.74323e-014 4.57205e-015
lhumerus -33.4165 -2.09944 81.7924
lradius 77.1744
lwrist 27.9624
lhand -30.4549 4.14888
lfingers 7.12502
lthumb -3.75676 34.0955
rfemur 3.5089 3.77113 19.0504
rtibia 17.8668
rfoot -17.6555 -0.643623
rtoes -3.21802
lfemur 4.92917 2.36304 -16.3571
ltibia 16.627
lfoot -17.1354 2.29131
ltoes -1.73562
2855
root 3.14957 17.552 -0.162131 -561.846 95.9759 -556.732
lowerback 3.78398 -1.04097 -0.915627
upperback -2.74228 -1.42279 0.237335
thorax -4.92839 -0.664463 0.871803
lowerneck -4.71169 -2.86 -1.91511
upperneck 6.47567 -4.63258 16.8438
head 3.15431 -1.57902 5.26839
rclavicle 3.07122e-014 -2.18663e-015
rhumerus -36.2464 -14.1243 -74.6192
rradius 76.1856
rwrist 17.9174
rhand -19.8365 6.28194
rfingers 7.12502
rthumb 6.49761 -23.5984
lclavicle 3.07122e-014 -2.18663e-015
lhumerus -32.9255 -1.42295 80.2631
lradius 78.5086
lwrist 27.9558
lhand -31.7146 2.82774
lfingers 7.12502
lthumb -4.97319 32.7494
rfemur 3.24523 3.80632 19.0011
rtibia 17.6543
rfoot -17.5178 -0.647626
rtoes -3.24476
lfemur 4.74145 2.36236 -16.4047
ltibia 16.3124
lfoot -17.0003 2.43859
ltoes -1.79224
2856
root 3.15231 17.561 -0.175024 -560.069 96.1014 -555.227
lowerback 3.65327 -0.944366 -0.749606
upperback -3.00102 -1.27589 0.3208
thorax -5.12886 -0.591987 0.85406
lowerneck -4.82362 -2.79574 -1.79247
upperneck 6.52701 -4.56668 17.0013
head 3.18425 -1.52482 5.3002
rclavicle -1.86609e-014 -4.77083e-015
rhumerus -35.7801 -14.8038 -73.4211
rradius 77.4023
rwrist 18.4604
rhand -21.858 6.45376
rfingers 7.12502
rthumb 4.54584 -23.4775
lclavicle -1.86609e-014 -4.77083e-015
lhumerus -32.3617 -0.818756 78.7454
lradius 79.8064
lwrist 28.0028
lhand -32.7531 2.26793
lfingers 7.12502
lthumb -5.97585 32.1637
rfemur 2.99737 3.82069 18.7813
rtibia 17.4645
rfoot -17.3171 -0.578054
rtoes -3.39079
lfemur 4.65217 2.27586 -16.6486
ltibia 15.9527
lfoot -16.9444 2.77553
ltoes -1.75807
2857
root 3.16001 17.5684 -0.181574 -558.122 95.8702 -553.5
lowerback 3.49361 -0.936274 -0.791051
upperback -3.23999 -1.26072 0.365326
thorax -5.28629 -0.578395 0.921906
lowerneck -4.87169 -2.75198 -1.69475
upperneck 6.53067 -4.51989 17.1935
head 3.19233 -1.48437 5.34667
rclavicle -1.41634e-014 -2.38542e-015
rhumerus -35.3412 -15.506 -72.2151
rradius 78.5364
rwrist 19.1348
rhand -23.7906 6.72467
rfingers 7.12502
rthumb 2.67959 -23.2382
lclavicle -1.41634e-014 -2.38542e-015
lhumerus -31.7625 -0.378439 77.2652
lradius 80.8878
lwrist 27.739
lhand -33.9652 1.38409
lfingers 7.12502
lthumb -7.14597 31.2434
rfemur 2.88936 3.82956 18.4942
rtibia 17.291
rfoot -17.332 -0.656901
rtoes -3.40282
lfemur 4.58148 2.27291 -16.9269
ltibia 15.5822
lfoot -16.7447 2.72008
ltoes -2.01281
2858
root 3.17093 17.5739 -0.185098 -558.232 95.4726 -553.823
lowerback 3.25018 -1.01285 -0.707453
upperback -3.42412 -1.34743 0.47334
thorax -5.33761 -0.619573 0.991028
lowerneck -4.94714 -2.71068 -1.64964
upperneck 6.4841 -4.46727 17.3684
head 3.19026 -1.44586 5.3963
rclavicle -1.01132e-014 -9.39258e-015
rhumerus -34.8221 -16.0841 -71.1084
rradius 79.6774
rwrist 19.3935
rhand -25.6869 6.90425
rfingers 7.12502
rthumb 0.848102 -23.0738
lclavicle -1.01132e-014 -9.39258e-015
lhumerus -31.08 0.152467 75.8543
lradius 81.7864
lwrist 27.1946
lhand -35.0436 0.153807
lfingers 7.12502
lthumb -8.18681 29.9752
rfemur 2.84947 3.74905 18.4197
rtibia 17.1589
rfoot -17.4725 -0.862934
rtoes -3.24655
lfemur 4.53426 2.30975 -16.9597
ltibia 15.1548
lfoot -16.4017 2.34296
ltoes -1.74831
